<svg xmlns="http://www.w3.org/2000/svg">
<defs>
 <linearGradient id="bun" x2="0" y2="1"><stop stop-color="#ffcd71"/><stop offset="1" stop-color="#db893d"/></linearGradient>
 <linearGradient id="bread" x2="0" y2="1"><stop stop-color="#f8b34e"/><stop offset="1" stop-color="#e78d31"/></linearGradient>
 <linearGradient id="meat" x2="0" y2="1"><stop stop-color="#79503a"/><stop offset="1" stop-color="#472d25"/></linearGradient>
 <linearGradient id="glass" x2="1" y2="0"><stop stop-color="#cbe4e0"/><stop offset=".3" stop-color="#f6fffb"/><stop offset="1" stop-color="#a9d0ce"/></linearGradient>
 <linearGradient id="cream" x2="1" y2="1"><stop stop-color="#fff9de"/><stop offset="1" stop-color="#f2c580"/></linearGradient>
 <linearGradient id="pink" x2="1" y2="1"><stop stop-color="#ff9d9f"/><stop offset="1" stop-color="#d82b52"/></linearGradient>
 <filter id="shadow" x="-30%" y="-30%" width="160%" height="170%"><feDropShadow dx="0" dy="6" stdDeviation="4" flood-color="#795638" flood-opacity=".16"/></filter>
 <g id="seeds" fill="#ffedbd"><ellipse cx="79" cy="52" rx="4" ry="1.7" transform="rotate(-20 79 52)"/><ellipse cx="112" cy="42" rx="4" ry="1.7" transform="rotate(20 112 42)"/><ellipse cx="141" cy="53" rx="4" ry="1.7" transform="rotate(35 141 53)"/><ellipse cx="97" cy="64" rx="4" ry="1.7"/><ellipse cx="128" cy="67" rx="4" ry="1.7" transform="rotate(-20 128 67)"/><ellipse cx="60" cy="67" rx="3" ry="1.4"/></g>
</defs>
<symbol id="burger" viewBox="0 0 220 160"><ellipse cx="110" cy="140" rx="77" ry="9" fill="#d3b493" opacity=".18"/><g filter="url(#shadow)"><path d="M42 116h136c-2 22-19 26-68 26s-66-4-68-26" fill="url(#bread)"/><path d="M40 109q8-10 18-5t19 0 22 0 24 0 22 0 18 0l17 8-5 12-132-1z" fill="url(#meat)"/><path d="m43 98 40-6 36 5 38-7 22 7-39 21-38-9-33 6z" fill="#ffc73b"/><path d="M43 92q14-12 31 0t31-1 31 0 42-2l-2 10q-11 8-23 0t-24 3-23-2-26 1-26-1z" fill="#66a74c"/><path d="M47 83h129v10H47z" fill="#db4b35"/><path d="M40 79c2-33 30-50 71-50s66 19 69 50q0 11-14 10H54q-14 0-14-10" fill="url(#bun)"/><use href="#seeds"/></g></symbol>
<symbol id="double" viewBox="0 0 220 160"><use href="#burger"/><path d="M43 121q15-9 32-2t31 0 32 0 40 0v10H43" fill="url(#meat)"/><path d="m47 119 33-4 35 4 41-5 19 5-31 13-43-6-26 5z" fill="#ffc73b"/></symbol>
<symbol id="crispy" viewBox="0 0 220 160"><use href="#burger"/><path d="M44 106q2-9 10-5 7-10 17-3 8-8 18 0 9-7 19-2 10-7 20 1 10-5 19 1 10-3 17 2 16 0 13 13-6 12-17 6-13 6-24 0-17 9-32 2-19 7-30-1-25 6-30-5z" fill="#d99b43"/><path d="m56 107 13 4m13-8 10 7m29-7 9 7m15-4 13 4" stroke="#f6c76c" stroke-width="4" stroke-linecap="round"/></symbol>
<symbol id="fries" viewBox="0 0 220 160"><ellipse cx="110" cy="140" rx="58" ry="8" fill="#d3b493" opacity=".18"/><g filter="url(#shadow)"><g fill="#f9c955" stroke="#e8a842" stroke-width="2"><path d="m66 88-8-52 12-2 10 56z"/><path d="m82 84-3-63 12-1 4 63z"/><path d="m96 90 5-62 13 1-5 64z"/><path d="m117 89 3-74 12 1-3 73z"/><path d="m133 90 10-61 12 3-9 63z"/><path d="m147 96 9-47 12 3-9 48z"/></g><path d="m55 73 18 60q36 15 73 0l19-60q-20 22-55 22T55 73" fill="#d9392e"/><path d="m61 82 13 48q36 13 70 0l7-24q-47 18-90-24" fill="#eb4a36"/><path d="m94 114 10-5 4 5 10-5 8 6-8 5-10-5-5 5z" fill="#ffe878"/></g></symbol>
<symbol id="cola" viewBox="0 0 220 160"><ellipse cx="111" cy="146" rx="36" ry="6" fill="#d3b493" opacity=".18"/><g filter="url(#shadow)"><path d="M98 23h25v13l9 19 5 20-2 59q-2 11-24 11t-24-11l-2-59 6-20 7-19z" fill="#492923"/><path d="M98 24h25v12H98z" fill="#d02b29"/><rect x="96" y="17" width="29" height="12" rx="3" fill="#e34336"/><path d="m87 74 1 39q22 7 47 0l1-39q-24 7-49 0" fill="#e4332a"/><path d="M95 99q8-18 14-10t17-1" stroke="#fff7ea" stroke-width="3" fill="none"/><path d="m97 44-5 19v70" stroke="#ffe4c9" opacity=".22" stroke-width="4" fill="none"/></g></symbol>
<symbol id="soda" viewBox="0 0 220 160"><ellipse cx="111" cy="146" rx="36" ry="6" fill="#d3b493" opacity=".18"/><g filter="url(#shadow)"><path d="M98 23h25v13l9 19 5 20-2 59q-2 11-24 11t-24-11l-2-59 6-20 7-19z" fill="#52a574"/><rect x="96" y="17" width="29" height="12" rx="3" fill="#347a4b"/><path d="m87 74 1 39q22 7 47 0l1-39q-24 7-49 0" fill="#f4e96d"/><path d="m94 101 31-14" stroke="#307c53" stroke-width="9"/><path d="m97 44-5 19v70" stroke="#fff" opacity=".4" stroke-width="4" fill="none"/></g></symbol>
<symbol id="water" viewBox="0 0 220 160"><ellipse cx="111" cy="146" rx="36" ry="6" fill="#d3b493" opacity=".18"/><g filter="url(#shadow)"><path d="M98 23h25v13l12 24v74q-2 11-24 11t-24-11V60l11-24z" fill="url(#glass)" stroke="#adc9d1"/><rect x="96" y="17" width="29" height="12" rx="3" fill="#5896c1"/><path d="M87 78h48v34H87z" fill="#7fb4cd"/><path d="M110 84q-17 17 0 20 17-3 0-20" fill="#ecfafc"/><path d="M94 66h34m-34 58h34m-34 7h34" stroke="#afcfda" stroke-width="3"/></g></symbol>
<symbol id="icecream" viewBox="0 0 220 160"><ellipse cx="110" cy="147" rx="40" ry="6" fill="#d3b493" opacity=".18"/><g filter="url(#shadow)"><path d="m76 74 35 74 34-74" fill="#d99952"/><path d="m82 80 45 29m-39-12 32 24m-22 9 37-45m-48 16 26-27" stroke="#f4c27c" stroke-width="3"/><path d="M70 74q-7-17 10-24-2-20 18-22 15-26 31 0 22 0 20 23 21 15 0 30-13 5-22-3-20 11-32-1-16 7-25-3" fill="url(#cream)"/><path d="M82 47q15 10 27-5m-18 22q16 10 33-1" stroke="#eac793" fill="none" stroke-width="3"/></g></symbol>
<symbol id="chocolate" viewBox="0 0 220 160"><use href="#icecream"/><path d="M70 74q-7-17 10-24-2-20 18-22 15-26 31 0 22 0 20 23 21 15 0 30-13 5-22-3-20 11-32-1-16 7-25-3" fill="#895640"/><path d="M82 47q15 10 27-5m-18 22q16 10 33-1" stroke="#b37a59" fill="none" stroke-width="3"/><g fill="#553728"><path d="m98 35 6-2 3 7-6 2zM130 47l6 1-1 6-6-1zM87 59l4-3 4 5-4 3z"/></g></symbol>
<symbol id="slush" viewBox="0 0 220 160"><ellipse cx="111" cy="147" rx="45" ry="6" fill="#d3b493" opacity=".18"/><g filter="url(#shadow)"><path d="m118 62 12-45h18" stroke="#de6e73" stroke-width="6" fill="none"/><path d="M77 68q0-42 34-42t34 42" fill="url(#pink)"/><path d="m76 66 10 72q24 13 50 0l10-72z" fill="url(#pink)" stroke="#efb2b1" stroke-width="3"/><path d="m86 74 7 57" stroke="#ffc6c4" stroke-width="5" opacity=".65"/><path d="M73 65h76" stroke="#ffe5dd" stroke-width="5" stroke-linecap="round"/><circle cx="115" cy="102" r="16" fill="#fff5de"/><path d="M105 99q11-7 20 0-3 20-10 13z" fill="#e5595c"/><path d="m109 97 5-7 5 7" fill="#6f9e66"/></g></symbol>
<symbol id="yellow" viewBox="0 0 220 160"><use href="#slush"/><path d="M78 62q0-37 33-37t33 37M79 69l9 66q22 11 46 0l9-66z" fill="#f5bc44"/><path d="m87 76 7 55" stroke="#ffe391" stroke-width="5"/><circle cx="112" cy="101" r="15" fill="#fff1ba"/><circle cx="112" cy="101" r="10" fill="#eab63d"/><g fill="#77573b"><circle cx="109" cy="97" r="1.5"/><circle cx="116" cy="102" r="1.5"/><circle cx="109" cy="107" r="1.5"/></g></symbol>
<symbol id="nuggets" viewBox="0 0 220 160"><ellipse cx="110" cy="125" rx="83" ry="20" fill="#fdfbf6" stroke="#e3d6be"/><g fill="#df9f47" stroke="#c98a3c" stroke-width="2" filter="url(#shadow)"><path d="M49 96q-9-24 16-28t28 13-6 29-38-14"/><path d="M84 108q-8-24 13-31t30 16-9 26-34-11"/><path d="M119 88q-5-28 18-30t30 20-12 26-36-16"/><path d="M140 117q-9-15 8-23t29 5-5 22-32-4"/><path d="M85 70q-9-22 12-29t29 17-10 22-31-10"/></g><g fill="#f9c774"><circle cx="64" cy="83" r="3"/><circle cx="70" cy="93" r="3"/><circle cx="105" cy="97" r="3"/><circle cx="145" cy="78" r="3"/><circle cx="101" cy="58" r="3"/><circle cx="153" cy="110" r="3"/></g></symbol>
</svg>
